<?xml version="1.0" encoding="UTF-8" standalone="no"?>
<svg
   xmlns:osb="http://www.openswatchbook.org/uri/2009/osb"
   xmlns:dc="http://purl.org/dc/elements/1.1/"
   xmlns:cc="http://creativecommons.org/ns#"
   xmlns:rdf="http://www.w3.org/1999/02/22-rdf-syntax-ns#"
   xmlns:svg="http://www.w3.org/2000/svg"
   xmlns="http://www.w3.org/2000/svg"
   width="16"
   viewBox="0 0 16 16.004578"
   version="1.1"
   id="svg7384"
   height="16.004578">
  <metadata
     id="metadata90">
    <rdf:RDF>
      <cc:Work
         rdf:about="">
        <dc:format>image/svg+xml</dc:format>
        <dc:type
           rdf:resource="http://purl.org/dc/dcmitype/StillImage" />
        <dc:title>Gnome Symbolic Icon Theme</dc:title>
      </cc:Work>
    </rdf:RDF>
  </metadata>
  <title
     id="title9167">Gnome Symbolic Icon Theme</title>
  <defs
     id="defs7386">
    <linearGradient
       osb:paint="solid"
       id="linearGradient7212">
      <stop
         style="stop-color:#000000;stop-opacity:1;"
         offset="0"
         id="stop7214" />
    </linearGradient>
  </defs>
  <g
     transform="translate(-519.98255,160)"
     style="display:inline"
     id="layer1" />
  <g
     transform="translate(-760.98275,527)"
     style="display:inline"
     id="layer9" />
  <g
     transform="translate(-760.98275,527)"
     style="display:inline"
     id="g7628">
    <path
       style="color:#000000;font-style:normal;font-variant:normal;font-weight:normal;font-stretch:normal;font-size:medium;line-height:normal;font-family:sans-serif;font-variant-ligatures:normal;font-variant-position:normal;font-variant-caps:normal;font-variant-numeric:normal;font-variant-alternates:normal;font-feature-settings:normal;text-indent:0;text-align:start;text-decoration:none;text-decoration-line:none;text-decoration-style:solid;text-decoration-color:#000000;letter-spacing:normal;word-spacing:normal;text-transform:none;writing-mode:lr-tb;direction:ltr;text-orientation:mixed;dominant-baseline:auto;baseline-shift:baseline;text-anchor:start;white-space:normal;shape-padding:0;clip-rule:nonzero;display:inline;overflow:visible;visibility:visible;opacity:0.5;isolation:auto;mix-blend-mode:normal;color-interpolation:sRGB;color-interpolation-filters:linearRGB;solid-color:#000000;solid-opacity:1;vector-effect:none;fill:#2e3436;fill-opacity:1;fill-rule:nonzero;stroke:none;stroke-width:1px;stroke-linecap:butt;stroke-linejoin:miter;stroke-miterlimit:4;stroke-dasharray:none;stroke-dashoffset:0;stroke-opacity:1;color-rendering:auto;image-rendering:auto;shape-rendering:auto;text-rendering:auto;enable-background:accumulate"
       id="path832"
       d="m 762.0002,-520 v 1 h 13 v -1 z" />
    <path
       style="color:#000000;font-style:normal;font-variant:normal;font-weight:normal;font-stretch:normal;font-size:medium;line-height:normal;font-family:sans-serif;font-variant-ligatures:normal;font-variant-position:normal;font-variant-caps:normal;font-variant-numeric:normal;font-variant-alternates:normal;font-feature-settings:normal;text-indent:0;text-align:start;text-decoration:none;text-decoration-line:none;text-decoration-style:solid;text-decoration-color:#000000;letter-spacing:normal;word-spacing:normal;text-transform:none;writing-mode:lr-tb;direction:ltr;text-orientation:mixed;dominant-baseline:auto;baseline-shift:baseline;text-anchor:start;white-space:normal;shape-padding:0;clip-rule:nonzero;display:inline;overflow:visible;visibility:visible;opacity:0.5;isolation:auto;mix-blend-mode:normal;color-interpolation:sRGB;color-interpolation-filters:linearRGB;solid-color:#000000;solid-opacity:1;vector-effect:none;fill:#2e3436;fill-opacity:1;fill-rule:nonzero;stroke:none;stroke-width:1px;stroke-linecap:butt;stroke-linejoin:miter;stroke-miterlimit:4;stroke-dasharray:none;stroke-dashoffset:0;stroke-opacity:1;color-rendering:auto;image-rendering:auto;shape-rendering:auto;text-rendering:auto;enable-background:accumulate"
       id="path834"
       d="m 762.0002,-523 v 1 h 13 v -1 z" />
    <path
       style="color:#000000;font-style:normal;font-variant:normal;font-weight:normal;font-stretch:normal;font-size:medium;line-height:normal;font-family:sans-serif;font-variant-ligatures:normal;font-variant-position:normal;font-variant-caps:normal;font-variant-numeric:normal;font-variant-alternates:normal;font-feature-settings:normal;text-indent:0;text-align:start;text-decoration:none;text-decoration-line:none;text-decoration-style:solid;text-decoration-color:#000000;letter-spacing:normal;word-spacing:normal;text-transform:none;writing-mode:lr-tb;direction:ltr;text-orientation:mixed;dominant-baseline:auto;baseline-shift:baseline;text-anchor:start;white-space:normal;shape-padding:0;clip-rule:nonzero;display:inline;overflow:visible;visibility:visible;opacity:0.5;isolation:auto;mix-blend-mode:normal;color-interpolation:sRGB;color-interpolation-filters:linearRGB;solid-color:#000000;solid-opacity:1;vector-effect:none;fill:#2e3436;fill-opacity:1;fill-rule:nonzero;stroke:none;stroke-width:1px;stroke-linecap:butt;stroke-linejoin:miter;stroke-miterlimit:4;stroke-dasharray:none;stroke-dashoffset:0;stroke-opacity:1;color-rendering:auto;image-rendering:auto;shape-rendering:auto;text-rendering:auto;enable-background:accumulate"
       id="path836"
       d="m 762.0002,-517 v 1 h 13 v -1 z" />
    <path
       style="color:#000000;font-style:normal;font-variant:normal;font-weight:normal;font-stretch:normal;font-size:medium;line-height:normal;font-family:sans-serif;font-variant-ligatures:normal;font-variant-position:normal;font-variant-caps:normal;font-variant-numeric:normal;font-variant-alternates:normal;font-feature-settings:normal;text-indent:0;text-align:start;text-decoration:none;text-decoration-line:none;text-decoration-style:solid;text-decoration-color:#000000;letter-spacing:normal;word-spacing:normal;text-transform:none;writing-mode:lr-tb;direction:ltr;text-orientation:mixed;dominant-baseline:auto;baseline-shift:baseline;text-anchor:start;white-space:normal;shape-padding:0;clip-rule:nonzero;display:inline;overflow:visible;visibility:visible;opacity:1;isolation:auto;mix-blend-mode:normal;color-interpolation:sRGB;color-interpolation-filters:linearRGB;solid-color:#000000;solid-opacity:1;vector-effect:none;fill:#2e3436;fill-opacity:1;fill-rule:nonzero;stroke:none;stroke-width:1;stroke-linecap:butt;stroke-linejoin:miter;stroke-miterlimit:4;stroke-dasharray:none;stroke-dashoffset:0;stroke-opacity:1;color-rendering:auto;image-rendering:auto;shape-rendering:auto;text-rendering:auto;enable-background:accumulate"
       id="path838"
       d="m 768.5002,-527 c -4.13029,0 -7.5,3.36971 -7.5,7.5 0,4.13029 3.36971,7.5 7.5,7.5 4.13029,0 7.5,-3.36971 7.5,-7.5 0,-4.13029 -3.36971,-7.5 -7.5,-7.5 z m 0,2 c 0.25596,0 0.50553,0.0232 0.75195,0.0566 0.19059,0.26016 0.38153,0.59041 0.54883,1.02539 0.42182,1.09678 0.69922,2.67505 0.69922,4.41801 0,1.74296 -0.2774,3.31928 -0.69922,4.41602 -0.16776,0.43617 -0.35967,0.767 -0.55078,1.02734 -0.24581,0.0333 -0.49471,0.0566 -0.75,0.0566 -0.25529,0 -0.50419,-0.0234 -0.75,-0.0566 -0.19111,-0.26034 -0.38302,-0.59117 -0.55078,-1.02734 -0.42182,-1.09674 -0.69922,-2.67306 -0.69922,-4.41602 0,-1.74296 0.2774,-3.32123 0.69922,-4.41797 0.1673,-0.43498 0.35824,-0.76523 0.54883,-1.02539 0.24642,-0.0334 0.49599,-0.0566 0.75195,-0.0566 z m -2.08789,0.4082 c -0.0474,0.10764 -0.10239,0.1998 -0.14649,0.31446 -0.483,1.2558 -0.76562,2.93045 -0.76562,4.77734 0,1.84689 0.28262,3.51959 0.76562,4.77539 0.0443,0.11525 0.0988,0.20826 0.14649,0.31641 -2.00637,-0.81832 -3.41211,-2.78264 -3.41211,-5.0918 0,-2.30916 1.40574,-4.27348 3.41211,-5.0918 z m 4.17578,0 c 2.00637,0.81832 3.41211,2.78264 3.41211,5.0918 0,2.30916 -1.40574,4.27348 -3.41211,5.0918 0.0477,-0.10815 0.10216,-0.20116 0.14649,-0.31641 0.483,-1.2558 0.76562,-2.9285 0.76562,-4.77539 0,-1.84689 -0.28263,-3.52154 -0.76562,-4.77734 -0.0441,-0.11466 -0.0991,-0.20682 -0.14649,-0.31446 z" />
  </g>
  <g
     transform="translate(-519.98255,-40)"
     id="layer13" />
  <g
     transform="translate(-519.98255,160)"
     style="display:inline"
     id="g6387" />
  <g
     transform="translate(-519.98255,160)"
     style="display:inline"
     id="layer10" />
  <g
     transform="translate(-519.98255,160)"
     id="layer12" />
  <g
     transform="translate(-519.98255,160)"
     style="display:inline"
     id="layer11" />
</svg>
