<?xml version="1.0" encoding="UTF-8" standalone="no"?>
<svg
   xmlns:dc="http://purl.org/dc/elements/1.1/"
   xmlns:cc="http://creativecommons.org/ns#"
   xmlns:rdf="http://www.w3.org/1999/02/22-rdf-syntax-ns#"
   xmlns:svg="http://www.w3.org/2000/svg"
   xmlns="http://www.w3.org/2000/svg"
   xmlns:sodipodi="http://sodipodi.sourceforge.net/DTD/sodipodi-0.dtd"
   xmlns:inkscape="http://www.inkscape.org/namespaces/inkscape"
   width="16"
   height="16"
   version="1.1"
   viewBox="0 0 16 16"
   id="svg8"
   sodipodi:docname="package-available-locked.svg"
   inkscape:version="0.92.2 2405546, 2018-03-11">
  <metadata
     id="metadata14">
    <rdf:RDF>
      <cc:Work
         rdf:about="">
        <dc:format>image/svg+xml</dc:format>
        <dc:type
           rdf:resource="http://purl.org/dc/dcmitype/StillImage" />
        <dc:title></dc:title>
      </cc:Work>
    </rdf:RDF>
  </metadata>
  <defs
     id="defs12" />
  <sodipodi:namedview
     pagecolor="#ffffff"
     bordercolor="#666666"
     borderopacity="1"
     objecttolerance="10"
     gridtolerance="10"
     guidetolerance="10"
     inkscape:pageopacity="0"
     inkscape:pageshadow="2"
     inkscape:window-width="792"
     inkscape:window-height="480"
     id="namedview10"
     showgrid="false"
     inkscape:zoom="14.75"
     inkscape:cx="7.0564046"
     inkscape:cy="8"
     inkscape:window-x="403"
     inkscape:window-y="85"
     inkscape:window-maximized="0"
     inkscape:current-layer="g6" />
  <g
     transform="translate(0,-1036.3622)"
     id="g6">
    <rect
       style="fill:#e4e4e4;fill-opacity:1"
       width="16"
       height="16"
       x="-1052.36"
       y="-16"
       rx=".8"
       ry=".8"
       transform="matrix(0,-1,-1,0,0,0)"
       id="rect2" />
    <path
       style="fill:#ffffff"
       d="m 5,1041.3622 0,1.9998 -0.5000001,0 c -0.277,0 -0.5,0.223 -0.5,0.5 l 0,5 c 0,0.277 0.223,0.5 0.5,0.5 l 7.0000001,0 c 0.277,0 0.5,-0.223 0.5,-0.5 l 0,-5 c 0,-0.277 -0.223,-0.5 -0.5,-0.5 l -0.5,0 0,-1.9998 c 0,-2 -1,-2 -2,-2 l -2,0 c -1,0 -2,0 -2,2 z m 4,0 0,2 -2,0 0,-2 z"
       id="path4" />
  </g>
</svg>
