<?xml version="1.0"?>
<svg xmlns="http://www.w3.org/2000/svg" width="16" height="16">
    <g color="#000" font-weight="400" font-family="sans-serif" fill="#2e3436">
        <path d="M8.177 1.005a7.008 7.008 0 0 0-5.682 2.6 7.007 7.007 0 0 0-.486 8.11 7.006 7.006 0 0 0 7.506 3.107 7.007 7.007 0 0 0 5.389-6.08 1 1 0 1 0-1.989-.213 4.995 4.995 0 0 1-3.85 4.343 4.992 4.992 0 0 1-5.36-2.218 4.994 4.994 0 0 1 .347-5.793A4.993 4.993 0 0 1 9.64 3.296a1 1 0 1 0 .68-1.88 6.979 6.979 0 0 0-2.143-.41z" style="line-height:normal;font-variant-ligatures:normal;font-variant-position:normal;font-variant-caps:normal;font-variant-numeric:normal;font-variant-alternates:normal;font-feature-settings:normal;text-indent:0;text-align:start;text-decoration-line:none;text-decoration-style:solid;text-decoration-color:#000;text-transform:none;text-orientation:mixed;white-space:normal;shape-padding:0;isolation:auto;mix-blend-mode:normal;solid-color:#000;solid-opacity:1" overflow="visible"/>
        <path d="M13.11 2.542L7.819 7.835 5.4 5.417 3.986 6.831l3.832 3.832 6.707-6.707z" style="line-height:normal;font-variant-ligatures:normal;font-variant-position:normal;font-variant-caps:normal;font-variant-numeric:normal;font-variant-alternates:normal;font-feature-settings:normal;text-indent:0;text-align:start;text-decoration-line:none;text-decoration-style:solid;text-decoration-color:#000;text-transform:none;text-orientation:mixed;white-space:normal;shape-padding:0;isolation:auto;mix-blend-mode:normal;solid-color:#000;solid-opacity:1" overflow="visible"/>
    </g>
</svg>
